<?xml version="1.0" encoding="UTF-8"?><svg id="Layer_2" xmlns="http://www.w3.org/2000/svg" xmlns:xlink="http://www.w3.org/1999/xlink" viewBox="0 0 200.1 40.63"><defs><style>.cls-1{fill:url(#linear-gradient-2);}.cls-2{fill:url(#linear-gradient-51);}.cls-3{fill:url(#linear-gradient-17);}.cls-4{fill:url(#linear-gradient-43);}.cls-5{fill:url(#linear-gradient-15);}.cls-6{fill:url(#linear-gradient-18);}.cls-7{fill:url(#linear-gradient-56);}.cls-8{fill:url(#linear-gradient-40);}.cls-9{fill:url(#linear-gradient-52);}.cls-10{fill:url(#linear-gradient-28);}.cls-11{fill:url(#linear-gradient-14);}.cls-12{fill:url(#linear-gradient-36);}.cls-13{fill:url(#linear-gradient-20);}.cls-14{fill:url(#linear-gradient-6);}.cls-15{fill:url(#linear-gradient-53);}.cls-16{isolation:isolate;}.cls-17{fill:url(#linear-gradient-35);}.cls-18{fill:url(#linear-gradient-48);}.cls-19{fill:url(#linear-gradient-32);}.cls-20{fill:url(#linear-gradient-11);}.cls-21{fill:url(#linear-gradient-50);}.cls-22{fill:url(#linear-gradient-39);}.cls-23{fill:url(#linear-gradient-10);}.cls-24{fill:url(#linear-gradient-49);}.cls-25{fill:url(#linear-gradient-37);}.cls-26{fill:url(#linear-gradient-16);}.cls-27{fill:url(#linear-gradient-31);}.cls-28{fill:url(#linear-gradient-41);}.cls-29{fill:url(#linear-gradient-21);}.cls-30{fill:url(#linear-gradient-25);}.cls-31{fill:url(#linear-gradient-5);}.cls-32{fill:url(#linear-gradient-54);}.cls-33{fill:url(#linear-gradient-45);}.cls-34{fill:url(#linear-gradient-55);}.cls-35{fill:url(#linear-gradient-34);}.cls-36{fill:url(#linear-gradient-7);}.cls-37{fill:url(#linear-gradient-24);}.cls-38{fill:url(#linear-gradient-9);}.cls-39{fill:url(#linear-gradient-22);}.cls-40{fill:url(#linear-gradient-42);}.cls-41{fill:url(#linear-gradient-3);}.cls-42{fill:url(#linear-gradient);}.cls-43{fill:url(#linear-gradient-27);}.cls-44{fill:url(#linear-gradient-33);}.cls-45{fill:url(#linear-gradient-38);}.cls-46{fill:url(#linear-gradient-29);}.cls-47{fill:url(#linear-gradient-30);}.cls-48{fill:url(#linear-gradient-23);}.cls-49{fill:url(#linear-gradient-19);}.cls-50{fill:url(#linear-gradient-4);}.cls-51{fill:url(#linear-gradient-8);}.cls-52{fill:url(#linear-gradient-44);}.cls-53{fill:url(#linear-gradient-47);}.cls-54{fill:url(#linear-gradient-46);}.cls-55{fill:url(#linear-gradient-12);}.cls-56{fill:url(#linear-gradient-13);}.cls-57{fill:url(#linear-gradient-26);}</style><linearGradient id="linear-gradient" x1="46.11" y1="-1154.4" x2="72.35" y2="-1157.24" gradientTransform="translate(0 -1120.2) scale(1 -1)" gradientUnits="userSpaceOnUse"><stop offset="0" stop-color="#ffb94d"/><stop offset=".24" stop-color="#ff2080"/><stop offset=".51" stop-color="#ff2351"/><stop offset=".78" stop-color="#ff00e9"/><stop offset="1" stop-color="#5900fd"/></linearGradient><linearGradient id="linear-gradient-2" x1="46.43" y1="-1151.4" x2="72.68" y2="-1154.24" xlink:href="#linear-gradient"/><linearGradient id="linear-gradient-3" x1="46.82" y1="-1147.81" x2="73.07" y2="-1150.64" gradientTransform="translate(0 -1120.2) scale(1 -1)" gradientUnits="userSpaceOnUse"><stop offset=".04" stop-color="#ffb94d"/><stop offset=".24" stop-color="#ff2080"/><stop offset=".51" stop-color="#ff2351"/><stop offset=".78" stop-color="#ff00e9"/><stop offset="1" stop-color="#5900fd"/></linearGradient><linearGradient id="linear-gradient-4" x1="47.66" y1="-1140.01" x2="73.91" y2="-1142.85" gradientTransform="translate(0 -1120.2) scale(1 -1)" gradientUnits="userSpaceOnUse"><stop offset=".09" stop-color="#ffb94d"/><stop offset=".24" stop-color="#ff2080"/><stop offset=".51" stop-color="#ff2351"/><stop offset=".78" stop-color="#ff00e9"/><stop offset="1" stop-color="#5900fd"/></linearGradient><linearGradient id="linear-gradient-5" x1="46.8" y1="-1148.04" x2="73.04" y2="-1150.88" xlink:href="#linear-gradient"/><linearGradient id="linear-gradient-6" x1="48.08" y1="-1136.15" x2="74.33" y2="-1138.98" gradientTransform="translate(0 -1120.2) scale(1 -1)" gradientUnits="userSpaceOnUse"><stop offset=".07" stop-color="#ffb94d"/><stop offset=".24" stop-color="#ff2080"/><stop offset=".51" stop-color="#ff2351"/><stop offset=".78" stop-color="#ff00e9"/><stop offset="1" stop-color="#5900fd"/></linearGradient><linearGradient id="linear-gradient-7" x1="47.09" y1="-1145.27" x2="73.34" y2="-1148.11" xlink:href="#linear-gradient"/><linearGradient id="linear-gradient-8" x1="48.47" y1="-1132.55" x2="74.72" y2="-1135.39" gradientTransform="translate(0 -1120.2) scale(1 -1)" gradientUnits="userSpaceOnUse"><stop offset=".08" stop-color="#ffb94d"/><stop offset=".24" stop-color="#ff2080"/><stop offset=".51" stop-color="#ff2351"/><stop offset=".78" stop-color="#ff00e9"/><stop offset="1" stop-color="#5900fd"/></linearGradient><linearGradient id="linear-gradient-9" x1="48.82" y1="-1129.35" x2="75.06" y2="-1132.19" gradientTransform="translate(0 -1120.2) scale(1 -1)" gradientUnits="userSpaceOnUse"><stop offset=".09" stop-color="#ffb94d"/><stop offset=".24" stop-color="#ff2080"/><stop offset=".51" stop-color="#ff2351"/><stop offset=".78" stop-color="#ff00e9"/><stop offset="1" stop-color="#5900fd"/></linearGradient><linearGradient id="linear-gradient-10" x1="49.11" y1="-1126.63" x2="75.36" y2="-1129.47" xlink:href="#linear-gradient"/><linearGradient id="linear-gradient-11" x1="49.23" y1="-1125.5" x2="75.48" y2="-1128.34" xlink:href="#linear-gradient"/><linearGradient id="linear-gradient-12" x1="49.56" y1="-1122.45" x2="75.81" y2="-1125.29" xlink:href="#linear-gradient"/><linearGradient id="linear-gradient-13" x1="49.79" y1="-1120.33" x2="76.04" y2="-1123.16" xlink:href="#linear-gradient"/><linearGradient id="linear-gradient-14" x1="45.8" y1="-1157.25" x2="72.05" y2="-1160.09" xlink:href="#linear-gradient"/><linearGradient id="linear-gradient-15" x1="4.49" y1="-1159.28" x2="42.62" y2="-1161.06" xlink:href="#linear-gradient"/><linearGradient id="linear-gradient-16" x1="4.6" y1="-1156.97" x2="42.73" y2="-1158.74" xlink:href="#linear-gradient"/><linearGradient id="linear-gradient-17" x1="4.79" y1="-1152.79" x2="42.92" y2="-1154.57" xlink:href="#linear-gradient"/><linearGradient id="linear-gradient-18" x1="4.49" y1="-1159.32" x2="42.62" y2="-1161.09" xlink:href="#linear-gradient"/><linearGradient id="linear-gradient-19" x1="4.97" y1="-1148.87" x2="43.1" y2="-1150.65" xlink:href="#linear-gradient"/><linearGradient id="linear-gradient-20" x1="4.63" y1="-1156.33" x2="42.75" y2="-1158.1" xlink:href="#linear-gradient"/><linearGradient id="linear-gradient-21" x1="5.16" y1="-1144.9" x2="43.29" y2="-1146.68" xlink:href="#linear-gradient"/><linearGradient id="linear-gradient-22" x1="4.83" y1="-1152" x2="42.96" y2="-1153.77" xlink:href="#linear-gradient"/><linearGradient id="linear-gradient-23" x1="5.35" y1="-1140.89" x2="43.47" y2="-1142.66" xlink:href="#linear-gradient"/><linearGradient id="linear-gradient-24" x1="4.81" y1="-1152.34" x2="42.94" y2="-1154.12" xlink:href="#linear-gradient"/><linearGradient id="linear-gradient-25" x1="5.03" y1="-1147.57" x2="43.16" y2="-1149.35" xlink:href="#linear-gradient"/><linearGradient id="linear-gradient-26" x1="5.33" y1="-1141.25" x2="43.46" y2="-1143.03" xlink:href="#linear-gradient"/><linearGradient id="linear-gradient-27" x1="5.01" y1="-1148.17" x2="43.13" y2="-1149.94" xlink:href="#linear-gradient"/><linearGradient id="linear-gradient-28" x1="5.5" y1="-1137.46" x2="43.63" y2="-1139.24" xlink:href="#linear-gradient"/><linearGradient id="linear-gradient-29" x1="5.2" y1="-1143.99" x2="43.33" y2="-1145.76" xlink:href="#linear-gradient"/><linearGradient id="linear-gradient-30" x1="5.47" y1="-1138.24" x2="43.6" y2="-1140.01" xlink:href="#linear-gradient"/><linearGradient id="linear-gradient-31" x1="5.81" y1="-1130.83" x2="43.94" y2="-1132.61" xlink:href="#linear-gradient"/><linearGradient id="linear-gradient-32" x1="5.39" y1="-1139.91" x2="43.52" y2="-1141.69" xlink:href="#linear-gradient"/><linearGradient id="linear-gradient-33" x1="4.66" y1="-1155.62" x2="42.79" y2="-1157.39" xlink:href="#linear-gradient"/><linearGradient id="linear-gradient-34" x1="4.57" y1="-1157.54" x2="42.7" y2="-1159.31" xlink:href="#linear-gradient"/><linearGradient id="linear-gradient-35" x1="6.02" y1="-1126.12" x2="44.15" y2="-1127.9" xlink:href="#linear-gradient"/><linearGradient id="linear-gradient-36" x1="5.61" y1="-1135.21" x2="43.74" y2="-1136.98" xlink:href="#linear-gradient"/><linearGradient id="linear-gradient-37" x1="6.19" y1="-1122.73" x2="44.32" y2="-1124.5" xlink:href="#linear-gradient"/><linearGradient id="linear-gradient-38" x1="5.79" y1="-1131.34" x2="43.92" y2="-1133.11" xlink:href="#linear-gradient"/><linearGradient id="linear-gradient-39" x1="5.98" y1="-1127.31" x2="44.1" y2="-1129.08" xlink:href="#linear-gradient"/><linearGradient id="linear-gradient-40" x1="6.16" y1="-1123.3" x2="44.29" y2="-1125.07" xlink:href="#linear-gradient"/><linearGradient id="linear-gradient-41" x1="6.28" y1="-1120.71" x2="44.41" y2="-1122.48" xlink:href="#linear-gradient"/><linearGradient id="linear-gradient-42" x1="78.75" y1="-1153.09" x2="98.48" y2="-1149.05" xlink:href="#linear-gradient"/><linearGradient id="linear-gradient-43" x1="77.73" y1="-1148.13" x2="97.47" y2="-1144.09" xlink:href="#linear-gradient"/><linearGradient id="linear-gradient-44" x1="78.09" y1="-1149.9" x2="97.83" y2="-1145.86" xlink:href="#linear-gradient"/><linearGradient id="linear-gradient-45" x1="77.09" y1="-1145.02" x2="96.83" y2="-1140.98" xlink:href="#linear-gradient"/><linearGradient id="linear-gradient-46" x1="76.56" y1="-1142.42" x2="96.3" y2="-1138.39" xlink:href="#linear-gradient"/><linearGradient id="linear-gradient-47" x1="75.99" y1="-1139.6" x2="95.72" y2="-1135.56" xlink:href="#linear-gradient"/><linearGradient id="linear-gradient-48" x1="75.32" y1="-1136.35" x2="95.06" y2="-1132.32" xlink:href="#linear-gradient"/><linearGradient id="linear-gradient-49" x1="74.42" y1="-1131.94" x2="94.16" y2="-1127.9" xlink:href="#linear-gradient"/><linearGradient id="linear-gradient-50" x1="74.24" y1="-1131.07" x2="93.98" y2="-1127.03" xlink:href="#linear-gradient"/><linearGradient id="linear-gradient-51" x1="73.6" y1="-1127.94" x2="93.34" y2="-1123.9" xlink:href="#linear-gradient"/><linearGradient id="linear-gradient-52" x1="73.04" y1="-1125.18" x2="92.77" y2="-1121.14" xlink:href="#linear-gradient"/><linearGradient id="linear-gradient-53" x1="78.91" y1="-1153.9" x2="98.65" y2="-1149.86" xlink:href="#linear-gradient"/><linearGradient id="linear-gradient-54" x1="79.57" y1="-1157.12" x2="99.31" y2="-1153.08" xlink:href="#linear-gradient"/><linearGradient id="linear-gradient-55" x1="80.16" y1="-1160.02" x2="99.9" y2="-1155.98" xlink:href="#linear-gradient"/><linearGradient id="linear-gradient-56" x1="75.08" y1="-1135.17" x2="94.82" y2="-1131.14" xlink:href="#linear-gradient"/></defs><g id="Layer_1-2"><g><g><path d="M102.5,11l2.1-11,3.5,7.8,3.5-7.8,1.9,11h-1.5l-1-6.1-3,6.6-2.9-6.6-1,6.1h-1.6Z"/><path d="M121.4,8.5h-4.4l-1,2.4h-1.6L119.4,.2l4.8,10.7h-1.6l-1.2-2.4Zm-.6-1.6l-1.5-3.4-1.5,3.4h3Z"/><path d="M126.5,6.6l-3.3-5.7h1.8l2.4,4,2.4-4h1.8l-3.4,5.7v4.4h-1.6V6.6h-.1Z"/><path d="M133.9,.9V7.1c0,.5,0,1.1,.4,1.6s1,1,1.9,1,1.6-.5,1.9-1c.4-.5,.4-1.1,.4-1.6V.9h1.6V7.3c0,.9-.3,1.8-1,2.6-.5,.5-1.4,1.1-2.8,1.1s-2.3-.6-2.8-1.1c-.8-.9-1-1.8-1-2.6V.9h1.4Z"/><path d="M143.9,.9c1.3,0,2,.1,2.6,.6,1,.8,1.1,1.9,1.1,2.4,0,1.5-.9,2.5-2.3,2.9l3.2,4.4h-1.9l-2.9-4.2h-.4v4.2h-1.3V.9h1.9Zm-.3,4.7h.5c.4,0,2.1,0,2.1-1.6,0-1.4-1.4-1.6-2.1-1.6h-.5v3.2Z"/><path d="M155.9,8.5h-4.4l-1,2.4h-1.6L153.9,.2l4.8,10.7h-1.7l-1.1-2.4Zm-.7-1.6l-1.5-3.4-1.6,3.4h3.1Z"/><path d="M110.3,16.8c-1.1-1-2.1-1.1-2.8-1.1-2.3,0-3.7,1.6-3.7,3.8s1.6,3.8,3.7,3.8c1.1,0,2.1-.6,2.8-1.1v1.9c-1,.6-2.1,.8-2.8,.8-1.8,0-3-.9-3.7-1.4-1.1-1-1.6-2.4-1.6-3.8,0-1.9,.8-3.2,1.6-3.9,1-1,2.3-1.3,3.7-1.3,1,0,1.8,.3,2.6,.8l.2,1.5h0Z"/><path d="M121.8,19.6c0,3-2.3,5.3-5.3,5.3s-5.3-2.3-5.3-5.3,2.3-5.3,5.3-5.3c3,0,5.3,2.2,5.3,5.3Zm-1.6,0c0-2.3-1.6-3.8-3.7-3.8s-3.7,1.6-3.7,3.8,1.6,3.8,3.7,3.8c2.2-.1,3.7-1.6,3.7-3.8Z"/><path d="M123.5,24.6V13.8l7.3,7.7v-7.1h1.6v10.7l-7.3-7.7v7.1l-1.6,.1h0Z"/><path d="M139,16.7c-.1-.3-.3-.4-.4-.6-.4-.3-.6-.4-1-.4-1,0-1.4,.5-1.4,1.1,0,.4,.1,.9,1,1.3l1,.4c1.9,.8,2.4,1.8,2.4,3,0,1.9-1.4,3.3-3.3,3.3-1.1,0-1.9-.4-2.4-1s-.8-1.3-.9-2l1.5-.4c0,.5,.3,1,.4,1.3,.4,.4,.8,.6,1.3,.6,1,0,1.6-.6,1.6-1.6s-.8-1.5-1.5-1.6l-1-.4c-.9-.4-2-1-2-2.5,0-1.4,1-2.6,3-2.6,1,0,1.6,.4,2,.6,.4,.3,.5,.6,.8,1l-1.1,.5Z"/><path d="M143.8,14.4v6.2c0,.5,0,1.1,.4,1.6s1,1,1.9,1,1.6-.5,1.9-1c.4-.5,.4-1.1,.4-1.6v-6.2h1.6v6.4c0,.9-.3,1.8-1,2.6-.5,.5-1.4,1.1-2.8,1.1s-2.3-.6-2.8-1.1c-.8-.9-1-1.8-1-2.6v-6.4h1.4Z"/><path d="M153.5,14.4v8.7h3v1.5h-4.5V14.4h1.5Z"/><path d="M160,15.9v8.7h-1.6V15.9h-2.4v-1.5h6.2v1.5s-2.2,0-2.2,0Z"/><path d="M168.9,22.2h-4.4l-1,2.4h-1.6l5-10.7,4.8,10.7h-1.7l-1.1-2.4Zm-.7-1.5l-1.5-3.4-1.6,3.4h3.1Z"/><path d="M172.5,24.6V13.8l7.3,7.7v-7.1h1.6v10.7l-7.3-7.7v7.1l-1.6,.1h0Z"/><path d="M191.3,16.8c-1.1-1-2.1-1.1-2.8-1.1-2.3,0-3.7,1.6-3.7,3.8s1.6,3.8,3.7,3.8c1.1,0,2.1-.6,2.8-1.1v1.9c-1,.6-2.1,.8-2.8,.8-1.8,0-3-.9-3.7-1.4-1.1-1-1.6-2.4-1.6-3.8,0-1.9,.8-3.2,1.6-3.9,1-1,2.3-1.3,3.7-1.3,1,0,1.8,.3,2.6,.8l.2,1.5h0Z"/><path d="M195,20.2l-3.3-5.7h1.8l2.4,4,2.4-4h1.8l-3.3,5.7v4.4h-1.8v-4.4Z"/><path d="M107.2,30.4c-.1-.3-.3-.4-.4-.6-.4-.3-.6-.4-1-.4-1,0-1.4,.5-1.4,1.1,0,.4,.1,.9,1,1.3l1,.4c1.9,.8,2.4,1.8,2.4,3,0,1.9-1.4,3.3-3.3,3.3-1.1,0-1.9-.4-2.4-1s-.8-1.3-.9-2l1.5-.4c0,.5,.3,1,.4,1.3,.4,.4,.8,.6,1.3,.6,1,0,1.6-.6,1.6-1.6s-.8-1.5-1.5-1.6l-1-.4c-.9-.4-2-1-2-2.5,0-1.4,1-2.6,3-2.6,1,0,1.6,.4,2,.6,.4,.3,.5,.6,.8,1l-1.1,.5Z"/><path d="M116,29.5h-4v2.5h3.9v1.5h-3.9v3.2h4v1.5h-5.5v-10.1h5.7v1.4s-.2,0-.2,0Z"/><path d="M119.7,28.1c1.3,0,2,.1,2.6,.6,1,.8,1.1,1.9,1.1,2.4,0,1.5-.9,2.5-2.3,2.9l3.2,4.4h-1.9l-2.9-4.2h-.3v4.2h-1.6v-10l2.1-.3h0Zm-.4,4.6h.5c.4,0,2.1,0,2.1-1.6,0-1.4-1.4-1.6-2.1-1.6h-.5v3.2Z"/><path d="M126.2,28.1l2.9,7.1,2.9-7.1h1.6l-4.6,10.7-4.4-10.8,1.6,.1h0Z"/><path d="M136.2,28.1v10.1h-1.6v-10.1h1.6Z"/><path d="M145.8,30.5c-1.1-1-2.1-1.1-2.8-1.1-2.3,0-3.7,1.6-3.7,3.8s1.6,3.8,3.7,3.8c1.1,0,2.1-.6,2.8-1.1v1.8c-1,.6-2.1,.8-2.8,.8-1.8,0-3-.9-3.7-1.4-1.1-1-1.6-2.4-1.6-3.8,0-1.9,.8-3.2,1.6-3.9,1-1,2.3-1.3,3.7-1.3,1,0,1.8,.3,2.6,.8l.2,1.6h0Z"/><path d="M153.1,29.5h-4v2.5h3.9v1.5h-3.9v3.2h4v1.5h-5.7v-10.1h5.7v1.4Z"/><path d="M159.3,30.4c-.1-.3-.3-.4-.4-.6-.4-.3-.6-.4-1-.4-1,0-1.4,.5-1.4,1.1,0,.4,.1,.9,1,1.3l1,.4c1.9,.8,2.4,1.8,2.4,3,0,1.9-1.4,3.3-3.3,3.3-1.1,0-1.9-.4-2.4-1s-.8-1.3-.9-2l1.5-.4c0,.5,.3,1,.4,1.3,.4,.4,.8,.6,1.3,.6,1,0,1.6-.6,1.6-1.6s-.8-1.5-1.5-1.6l-1-.4c-.9-.4-2-1-2-2.5,0-1.4,1-2.6,3-2.6,1,0,1.6,.4,2,.6,.4,.3,.5,.6,.8,1l-1.1,.5Z"/></g><g><g class="cls-16"><path class="cls-42" d="M69,40.2c-1.1,.3-3.5,.5-5,.4l-14.8-7.9c-.6-.9-1.1-1.8-1.6-2.8l21.4,10.3Z"/><path class="cls-1" d="M74,36.8v1.9c-1.1,.6-1.9,.9-3.7,1.1l-24.3-13.1c-.3-.5-.4-1-.4-1.6l26.7,12.6,.9-.4,.8-.5Z"/><path class="cls-41" d="M74,32.8v3.5l-1.6,.8-27.1-14.8c0-.5-.1-1-.1-1.6l11.6,5.5c.4,.8,.9,1.4,1.4,1.9,2.1,2.1,5.2,2.9,8.2,2.5l5.8,2.8,.4,.3,1.4-.9Z"/><path class="cls-50" d="M56,23.8l-10.7-5.8c0-.5,.1-1,.3-1.5l10.2,4.8c-.1,1,.1,1.8,.2,2.5Z"/><path class="cls-31" d="M74,28.6v3.4l-1.5,.8-4.7-2.4c.6-.1,1.3-.4,1.8-.6,.5-.3,1-.5,1.6-.9l1,.5,1.8-.8Z"/><path class="cls-14" d="M55.7,17.5c-.1,.6-.3,1.4-.3,2l-9.4-5.1c.1-.4,.4-1,.4-1.4l9.3,4.5Z"/><path class="cls-36" d="M74,26.9v1.1l-1.5,.9-.5-.4c.6-.4,1.1-1,1.8-1.5l.2-.1Z"/><path class="cls-51" d="M57.4,14c-.5,.6-.9,1.3-1,1.9l-9.1-5c.3-.4,.4-.9,.6-1.3l9.5,4.4Z"/><path class="cls-38" d="M60.5,11.4c-.8,.4-1.3,.8-2,1.5l-9.3-5c.4-.4,.6-.9,1-1.3l10.3,4.8Z"/><path class="cls-23" d="M66.7,10.2c-2.6-.3-4.8,.5-4.8,.5l-10.1-5.6c.4-.4,1-.9,1.5-1.1l13.4,6.2Z"/><path class="cls-20" d="M74.1,7.8l-1.6,.9L57.4,1.6c-.9,.4-1.7,.7-2.4,1.2l17.5,9.6,1.1-.6,.5-4Z"/><path class="cls-55" d="M74,3.8v3.4l-1.6,.9L59.5,.9c1.3-.4,2.6-.5,4.2-.5h0l8.7,4.2,1.6-.8Z"/><path class="cls-56" d="M74.1,2.2v1l-1.6,.9-6.4-3.7c1.4,.1,3.2,.3,4.4,.6,1.1,.3,2.4,.6,3.6,1.2Z"/><path class="cls-11" d="M59.8,39.7c-2.4-.5-4.7-1.6-6.7-3,2,.9,4.8,2.1,6.7,3Z"/></g><g><polygon class="cls-5" points="5.4 40.4 .1 37.5 0 38.3 3.2 40.4 5.4 40.4"/><polygon class="cls-26" points="10.1 38.2 .9 33.7 .8 34.6 9.8 39.9 10.1 38.2"/><polygon class="cls-3" points="10.7 34.2 1.5 29.6 1.4 30.5 10.5 35.7 10.7 34.2"/><polygon class="cls-6" points="23.1 40.4 21.1 39.4 21.4 40.4 23.1 40.4"/><polygon class="cls-49" points="11.2 30.1 2.3 25.7 2 26.6 11 31.8 11.2 30.1"/><polygon class="cls-13" points="19 33.9 26.6 37.8 25.6 40 20.2 37 20.2 37 19 33.9"/><polygon class="cls-29" points="11.9 26.1 2.9 21.8 2.8 22.7 11.6 27.8 11.9 26.1"/><polygon class="cls-39" points="17 28.6 28.1 34.1 27.1 36.6 18 31.3 17 28.6"/><polygon class="cls-48" points="12.5 22.1 3.5 17.8 3.4 18.8 12.1 23.8 12.5 22.1"/><polygon class="cls-37" points="36.4 33.9 37.1 34.2 45.9 29.9 46.3 32.7 46.3 32.7 37.1 37.8 36.9 37.7 36.4 33.9"/><polygon class="cls-30" points="15 23.3 15 23.3 29.5 30.5 28.5 33 16 25.9 15 23.3"/><polygon class="cls-57" points="29.9 29.4 13.9 20.4 13 18.2 12.9 19.8 4 15 4.3 13.8 31 26.9 29.9 29.4"/><polygon class="cls-43" points="45.3 25.9 37.1 29.9 35.9 29.3 36.4 33 37.1 33.4 45.8 28.6 45.3 25.9"/><polygon class="cls-10" points="32.4 23.2 24.5 19.4 23.6 21.3 22.6 18.4 4.9 9.8 4.8 11 31.4 25.9 32.4 23.2"/><polygon class="cls-46" points="35.3 24.6 37.1 25.5 44.8 21.8 44.8 21.8 45.1 24.6 45.1 24.6 37.1 29.1 35.8 28.5 35.3 24.6"/><polygon class="cls-47" points="33.8 19.7 25.9 15.8 25 18 32.8 22.5 33.8 19.7"/><polygon class="cls-27" points="20.6 13.1 5.7 5.8 5.4 6.9 21.7 16.2 20.6 13.1"/><polygon class="cls-19" points="34.8 20.1 37.1 21.2 44.1 17.8 44.5 20.6 37.1 24.9 35.2 23.8 34.8 20.1"/><polygon class="cls-44" points="37.2 40.4 40.6 40.4 46.9 36.6 46.9 36.6 46.9 36.6 46.5 33.9 46.5 33.9 37.1 38.6 37.2 40.4"/><polygon class="cls-35" points="47.4 40.4 47 38 42.1 40.4 47.4 40.4"/><polygon class="cls-17" points="18.7 7.8 6.4 1.8 6.1 3 19.7 10.7 18.7 7.8"/><polygon class="cls-12" points="43.9 16.7 37.1 20.4 34.7 19.1 34.7 19.1 34.4 18 34.2 18.9 26.4 14.4 27.4 12.1 37.1 16.9 43.5 13.8 43.9 16.7"/><polygon class="cls-25" points="16.6 2.5 12.7 .6 9.5 .6 17.7 5.3 16.6 2.5"/><polyline class="cls-45" points="43 9.7 37.1 12.5 28.8 8.5 27.7 11 37.1 16.3 43.4 12.7"/><polyline class="cls-22" points="42.4 5.6 37.1 8.3 30.3 4.9 29.1 7.4 37.1 11.9 42.9 8.7 42.9 8.7"/><path class="cls-8" d="M41.9,1.6c-1.6,.8-4.8,2.4-4.8,2.4-.1,0-4.2-2-5.4-2.6l-1,2.6,6.4,3.7,5.1-2.9"/><path class="cls-28" d="M41.7,.8l-4.5,2.5s-3.3-1.8-4.7-2.6l9.2,.1h0Z"/></g><g class="cls-16"><path class="cls-40" d="M82.2,31.8l-8.2,4.5v-3.5l5-2.4h0c.4,.3,.6,.4,.6,.4,.9,.5,1.7,.7,2.6,1Z"/><path class="cls-4" d="M99.1,22.7l-10,5.3c-.1-.5-.4-1-.6-1.5-.1-.1-.3-.4-.4-.4l10.3-4.8c.3,.5,.6,.9,.7,1.4Z"/><path class="cls-52" d="M78.2,29.9l-4.2,2.3v-1l2.3-2.8c-.1,.1,.9,.9,1.9,1.5Z"/><path class="cls-33" d="M97.1,19.7l-10.2,5.5c-.4-.3-1-.4-1.5-.5-.5-.3-1-.4-1.6-.4l12-5.7c.3,.2,.8,.6,1.3,1.1Z"/><path class="cls-54" d="M93.6,17.4l-11.5,6.3c-1.1-.4-2.3-.8-3.3-1.3l12.5-5.8c.6,.1,1.5,.4,2.3,.8Z"/><path class="cls-53" d="M89,15.8l-11.3,5.9h0c-.9-.5-1.6-1.3-2.4-2l10.7-5c1.5,.7,2.8,1.1,3,1.1Z"/><path class="cls-18" d="M84.7,13.9l-9.7,5.2c-.3-.4-.4-.6-.5-1-.4-.5-.5-1.1-.6-1.8l10.1-4.8c-.4,1,.1,1.9,.7,2.4Z"/><path class="cls-24" d="M97.7,5.1l-1.4,2.6-4.2,2.3c-.8-.4-1.6-.9-2.5-1l8.1-3.9Z"/><path class="cls-21" d="M97.6,2.9l-24,12.7c-.3-1-.4-2-.4-3v-.1l.8-.4L95.6,1.9h0c.6,.4,1.4,.8,2,1Z"/><path class="cls-2" d="M93.2,1c-1-.4-2-.5-3-.6h0l-15.9,7.4s-.6,2.3-.8,3.9L93.2,1Z"/><path class="cls-9" d="M87.3,.3l-12.5,6.5c.9-1.6,2-2.9,3.5-3.9,2.5-1.9,5.7-2.6,9-2.6Z"/><path class="cls-15" d="M99.7,26.5l-23,12.3c-.9-.4-1.6-.8-2.4-1.1l-.3-.9,10.3-4.8h.1c1.6,.1,3.7-.1,4.4-1.6,.1-.3,.3-.4,.3-.6l10.6-5c0,.7,0,1.1,0,1.7Z"/><path class="cls-32" d="M99.7,28.9c-.1,.6-.3,1.4-.4,2l-17.7,9.5c-1.5-.3-2.8-.6-4-1l22.1-10.5Z"/><path class="cls-34" d="M98.4,33.8c-.4,1.6-1.9,2.8-1.9,2.8l-6.7,3.5c-1.4,.4-3.5,.6-5.9,.5l14.5-6.8Z"/><polygon class="cls-7" points="93.8 11 94.5 11.4 95 10.5 93.8 11"/></g></g></g></g></svg>